<svg width="500" height="500" viewBox="0 0 500 500" fill="none" xmlns="http://www.w3.org/2000/svg">
<path d="M143.091 310.25V265.219C143.091 233.01 182.831 215.38 211.518 215.38C228.024 215.38 240.841 221.151 240.841 233.01V310.25H253.664V150H240.841V220.031C229.784 213.781 215.846 210.573 201.419 210.573C179.628 210.573 157.034 218.104 143.091 234.292V150H130.268V310.25H143.091Z" fill="white"/>
<path d="M241.264 310.25H254.087C254.087 310.25 253.925 168.109 253.925 163.302C253.925 154.646 256.649 153.203 262.42 153.203H300.878C332.93 153.203 349.753 169.552 349.753 195.672C349.753 221.792 332.93 238.135 300.878 238.135H269.472V241.344H283.732C302.962 241.344 328.602 296.63 351.357 310.25H369.467C362.253 305.443 349.753 293.906 339.821 280.604C328.123 264.901 319.305 252.88 310.331 245.828C306.488 242.786 305.524 241.344 310.331 241.344H314.982C355.847 240.859 364.977 211.698 364.977 195.672C364.977 179.646 355.847 150 314.982 150H241.264V310.25Z" fill="white"/>
<path d="M125.979 343.75C126.406 343.932 126.755 344.167 127.021 344.458C127.297 344.74 127.484 345.037 127.583 345.354C127.677 345.662 127.734 345.99 127.75 346.333C127.776 346.667 127.781 347 127.771 347.333C127.755 347.667 127.755 347.99 127.771 348.292C127.781 348.599 127.854 348.891 127.979 349.167C128.104 349.432 128.292 349.646 128.542 349.813V350.229H126.521C126.271 349.662 126.146 348.948 126.146 348.083V346.917C126.146 346.099 125.969 345.5 125.625 345.125C125.276 344.75 124.734 344.563 124 344.563H119.667V350.229H118V337.083H124.042C125.333 337.083 126.318 337.391 127 338C127.693 338.599 128.042 339.469 128.042 340.604C128.042 341.354 127.88 341.979 127.563 342.479C127.24 342.969 126.714 343.391 125.979 343.75ZM126.292 340.833C126.292 340.391 126.219 340.016 126.083 339.708C125.958 339.391 125.771 339.156 125.521 339C125.271 338.849 125 338.745 124.708 338.688C124.427 338.62 124.094 338.583 123.708 338.583H119.667V343.083H123.708C124.609 343.083 125.26 342.906 125.667 342.542C126.083 342.182 126.292 341.615 126.292 340.833Z" fill="white"/>
<path d="M147.031 344.25V348.75H154.802V350.229H145.365V337.083H154.448V338.583H147.031V342.771H154.198V344.25H147.031Z" fill="white"/>
<path d="M178.718 346.292H173.655L172.26 350.229H170.489L175.176 337.083H177.343L181.947 350.229H180.072L178.718 346.292ZM178.239 344.875L176.239 338.896L174.072 344.875H178.239Z" fill="white"/>
<path d="M199.738 337.083V348.75H206.217V350.229H198.05V337.083H199.738Z" fill="white"/>
<path d="M243.769 344.25V348.75H251.54V350.229H242.103V337.083H251.186V338.583H243.769V342.771H250.936V344.25H243.769Z" fill="white"/>
<path d="M273.081 349.167C273.623 349.167 274.102 349.12 274.519 349.021C274.935 348.911 275.258 348.781 275.498 348.625C275.732 348.458 275.92 348.266 276.06 348.042C276.211 347.807 276.31 347.599 276.352 347.417C276.404 347.224 276.435 347.016 276.435 346.792C276.435 346.281 276.232 345.849 275.831 345.5C275.44 345.156 274.836 344.87 274.019 344.646L270.769 343.792C269.045 343.349 268.185 342.328 268.185 340.729C268.185 339.536 268.602 338.599 269.435 337.917C270.269 337.224 271.404 336.875 272.852 336.875C274.362 336.875 275.539 337.24 276.373 337.958C277.216 338.667 277.649 339.667 277.664 340.958H276.06C276.045 340.099 275.758 339.438 275.206 338.979C274.649 338.521 273.841 338.292 272.789 338.292C271.899 338.292 271.185 338.495 270.644 338.896C270.112 339.302 269.852 339.833 269.852 340.5C269.852 341 270.008 341.396 270.331 341.688C270.649 341.979 271.211 342.229 272.019 342.438L275.31 343.333C276.211 343.573 276.899 343.974 277.373 344.542C277.857 345.115 278.102 345.807 278.102 346.625C278.102 346.974 278.05 347.323 277.956 347.667C277.873 348 277.711 348.354 277.477 348.729C277.237 349.094 276.935 349.411 276.56 349.688C276.185 349.969 275.685 350.198 275.06 350.375C274.446 350.552 273.753 350.646 272.977 350.646C272.477 350.646 271.998 350.604 271.539 350.521C271.091 350.448 270.633 350.313 270.164 350.104C269.706 349.885 269.3 349.604 268.956 349.271C268.623 348.938 268.341 348.5 268.123 347.958C267.899 347.406 267.779 346.766 267.769 346.042H269.373V346.146C269.373 346.51 269.425 346.854 269.539 347.188C269.649 347.51 269.836 347.828 270.102 348.146C270.362 348.453 270.748 348.703 271.248 348.896C271.758 349.078 272.373 349.167 273.081 349.167Z" fill="white"/>
<path d="M299.726 338.583V350.229H298.059V338.583H293.726V337.083H304.038V338.583H299.726Z" fill="white"/>
<path d="M327.318 346.292H322.256L320.86 350.229H319.089L323.776 337.083H325.943L330.547 350.229H328.672L327.318 346.292ZM326.839 344.875L324.839 338.896L322.672 344.875H326.839Z" fill="white"/>
<path d="M351.588 338.583V350.229H349.921V338.583H345.588V337.083H355.9V338.583H351.588Z" fill="white"/>
<path d="M373.93 344.25V348.75H381.701V350.229H372.263V337.083H381.347V338.583H373.93V342.771H381.097V344.25H373.93Z" fill="white"/>
</svg>
